<svg version="1.2" xmlns="http://www.w3.org/2000/svg" viewBox="0 0 295 250" width="295" height="250"><defs><clipPath clipPathUnits="userSpaceOnUse" id="cp1"><path d="m72.5 16.01h150v150h-150z"/></clipPath></defs><style>.a{fill:#fb2e01}</style><g clip-path="url(#cp1)"><path class="a" d="m222.5 16v150h-102.6l-0.2-43.6c0-1.3 1.4-2 2.5-1.3l10.7 8.1c0.5 0.4 1.1 0.4 1.6 0.2l18.1-9.2c1-0.5 1.1-1.9 0.2-2.6l-32.7-24.4c-0.4-0.3-0.6-0.8-0.6-1.3l-0.1-18.3c0-1.3 1.4-2 2.4-1.3l49.9 36.9c0.4 0.3 1 0.3 1.6 0.1l18-9.2c1-0.5 1.2-1.9 0.2-2.6l-91.2-67.4c-1-0.7-2.4 0-2.4 1.3l0.8 134.6h-26.2v-150z"/></g><path class="a" d="m22.2 178h11.9v4.6h-6.7v3.5h6v4.5h-6v5.4h-5.2z"/><path class="a" d="m41.7 178h5.2v13.1h7.4v4.9h-12.6z"/><path class="a" d="m61.5 188.5v-10.5h5.2v10.2c0 2.1 0.9 3.3 2.7 3.3 1.8 0 2.7-1.2 2.7-3.3v-10.2h5.2v10.5c0 4.9-3.1 7.8-7.9 7.8-4.9 0-7.9-2.9-7.9-7.8z"/><path class="a" d="m85.7 178h11.9v4.6h-6.7v3.5h6.1v4.5h-6.1v5.4h-5.2z"/><path class="a" d="m105.3 178h11.9v4.6h-6.7v3.5h6v4.5h-6v5.4h-5.2z"/><path class="a" d="m129.7 189.7l-6.6-11.7h5.8l1.9 3.7 1.4 2.7 3.3-6.4h5.9l-6.6 11.7v6.3h-5.1z"/><path class="a" d="m147.9 187.8h8.6v3.4h-8.6z"/><path fill-rule="evenodd" class="a" d="m163.7 187c0-5.5 4.1-9.4 9.8-9.4 5.8 0 9.8 3.9 9.8 9.4 0 5.5-4 9.3-9.8 9.3-5.7 0-9.8-3.8-9.8-9.3zm9.8 4.5c2.7 0 4.6-1.8 4.6-4.5 0-2.7-1.9-4.6-4.6-4.6-2.6 0-4.5 1.9-4.5 4.6 0 2.7 1.9 4.5 4.5 4.5z"/><path class="a" d="m189.9 187c0-5.6 3.8-9.4 9.4-9.4 4.8 0 8.5 2.9 9.4 7.5h-5.2c-0.6-1.7-2.1-2.7-4-2.7-2.6 0-4.3 1.8-4.3 4.6 0 2.7 1.7 4.5 4.2 4.5 2 0 3.5-1 4.2-2.7h5.2c-0.7 4.5-4.5 7.5-9.5 7.5-5.6 0-9.4-3.8-9.4-9.3z"/><path class="a" d="m220.7 182.8h-5.5v-4.8h16.1v4.8h-5.5v13.2h-5.1z"/><path fill-rule="evenodd" class="a" d="m237.7 187c0-5.5 4.1-9.4 9.8-9.4 5.7 0 9.8 3.9 9.8 9.4 0 5.5-4.1 9.3-9.8 9.3-5.7 0-9.8-3.8-9.8-9.3zm9.8 4.5c2.7 0 4.5-1.8 4.5-4.5 0-2.7-1.8-4.6-4.5-4.6-2.7 0-4.5 1.9-4.5 4.6 0 2.7 1.8 4.5 4.5 4.5z"/><path class="a" d="m264.5 187.8h8.7v3.4h-8.7z"/><path class="a" d="m50.5 214h11.8v4.6h-6.7v3.5h6.1v4.5h-6.1v5.4h-5.1z"/><path fill-rule="evenodd" class="a" d="m69 223c0-5.5 4.1-9.4 9.8-9.4 5.7 0 9.8 3.9 9.8 9.4 0 5.5-4.1 9.3-9.8 9.3-5.7 0-9.8-3.8-9.8-9.3zm9.8 4.5c2.7 0 4.5-1.8 4.5-4.5 0-2.7-1.8-4.6-4.5-4.6-2.7 0-4.5 1.9-4.5 4.6 0 2.7 1.8 4.5 4.5 4.5z"/><path fill-rule="evenodd" class="a" d="m96.2 214h8.2c4.4 0 7.1 2.4 7.1 6.4 0 2.5-1.1 4.4-3 5.5l3.3 6.1h-5.9l-2.6-5.2h-1.9v5.2h-5.2zm7.5 8.7c1.7 0 2.6-0.8 2.6-2.3 0-1.4-0.9-2.2-2.6-2.2h-2.4v4.5z"/><path class="a" d="m123.8 218.8h-5.5v-4.8h16.2v4.8h-5.5v13.2h-5.2z"/><path class="a" d="m141.9 214h4.2l6.9 9.1v-9.1h5.1v18h-4.2l-6.9-9.2v9.2h-5.1z"/><path class="a" d="m166.7 214h5.2v18h-5.2z"/><path class="a" d="m179.5 223c0-5.6 3.9-9.4 9.5-9.4 4.6 0 8.3 2.5 9.3 6.4h-5.5c-0.7-1.1-2.1-1.8-3.7-1.8-2.7 0-4.5 1.9-4.5 4.8 0 2.7 1.7 4.7 4.6 4.7 2 0 3.5-1 4-2.5h-5v-3.7h10.4c0.6 6.3-3.3 10.8-9.5 10.8-5.7 0-9.6-3.8-9.6-9.3z"/><path class="a" d="m217 225.2h-5.6v6.8h-5.2v-18h5.2v6.4h5.6v-6.4h5.2v18h-5.2z"/><path class="a" d="m235.1 218.8h-5.5v-4.8h16.1v4.8h-5.5v13.2h-5.1z"/></svg>
